<svg width="208" height="58" viewBox="0 0 208 58" fill="none" xmlns="http://www.w3.org/2000/svg">
<g filter="url(#filter0_d_25372_398)">
<rect x="4" width="200" height="50" rx="4" fill="#2196F3"/>
</g>
<path d="M43.4188 30H41.0672V20.5234H36.5125V30H34.1688V18.625H43.4188V30ZM45.9413 25.6953C45.9413 24.8568 46.1027 24.1094 46.4256 23.4531C46.7485 22.7969 47.2121 22.2891 47.8163 21.9297C48.4256 21.5703 49.1314 21.3906 49.9334 21.3906C51.0741 21.3906 52.0038 21.7396 52.7225 22.4375C53.4465 23.1354 53.8501 24.0833 53.9334 25.2812L53.9491 25.8594C53.9491 27.1562 53.5871 28.1979 52.8631 28.9844C52.1392 29.7656 51.1678 30.1562 49.9491 30.1562C48.7303 30.1562 47.7564 29.7656 47.0272 28.9844C46.3032 28.2031 45.9413 27.1406 45.9413 25.7969V25.6953ZM48.1991 25.8594C48.1991 26.6615 48.3501 27.276 48.6522 27.7031C48.9543 28.125 49.3866 28.3359 49.9491 28.3359C50.4959 28.3359 50.923 28.1276 51.2303 27.7109C51.5376 27.2891 51.6913 26.6172 51.6913 25.6953C51.6913 24.9089 51.5376 24.2995 51.2303 23.8672C50.923 23.4349 50.4907 23.2188 49.9334 23.2188C49.3814 23.2188 48.9543 23.4349 48.6522 23.8672C48.3501 24.2943 48.1991 24.9583 48.1991 25.8594ZM55.8544 28.1797C56.3648 27.638 56.7111 27.1016 56.8934 26.5703C57.0757 26.0391 57.1773 25.2865 57.1981 24.3125L57.2606 21.5469H63.4794V28.1797H64.6981V32.5391H62.4403V30H57.4325V32.5391H55.1278V28.1797H55.8544ZM58.5184 28.1797H61.2294V23.4141H59.4716L59.4559 24.4297C59.4091 25.9818 59.0966 27.2318 58.5184 28.1797ZM74.0175 30H71.7519V23.375H68.9238V30H66.6659V21.5469H74.0175V30ZM81.7978 21.5469H84.0556V30H81.7978V24.7812L78.9697 30H76.7041V21.5469H78.9697V26.7578L81.7978 21.5469ZM90.2578 28.3359C90.6745 28.3359 91.013 28.2214 91.2734 27.9922C91.5339 27.763 91.6693 27.4583 91.6797 27.0781H93.7969C93.7917 27.651 93.6354 28.1771 93.3281 28.6562C93.0208 29.1302 92.599 29.5 92.0625 29.7656C91.5312 30.026 90.9427 30.1562 90.2969 30.1562C89.0885 30.1562 88.1354 29.7734 87.4375 29.0078C86.7396 28.237 86.3906 27.1745 86.3906 25.8203V25.6719C86.3906 24.3698 86.737 23.3307 87.4297 22.5547C88.1224 21.7786 89.0729 21.3906 90.2812 21.3906C91.3385 21.3906 92.1849 21.6927 92.8203 22.2969C93.4609 22.8958 93.7865 23.6953 93.7969 24.6953H91.6797C91.6693 24.2578 91.5339 23.9036 91.2734 23.6328C91.013 23.3568 90.6693 23.2188 90.2422 23.2188C89.7161 23.2188 89.3177 23.4115 89.0469 23.7969C88.7812 24.1771 88.6484 24.7969 88.6484 25.6562V25.8906C88.6484 26.7604 88.7812 27.3854 89.0469 27.7656C89.3125 28.1458 89.7161 28.3359 90.2578 28.3359ZM100.944 30C100.84 29.7969 100.765 29.5443 100.718 29.2422C100.171 29.8516 99.46 30.1562 98.585 30.1562C97.7569 30.1562 97.0694 29.9167 96.5225 29.4375C95.9808 28.9583 95.71 28.3542 95.71 27.625C95.71 26.7292 96.0407 26.0417 96.7022 25.5625C97.3689 25.0833 98.3298 24.8411 99.585 24.8359H100.624V24.3516C100.624 23.9609 100.522 23.6484 100.319 23.4141C100.121 23.1797 99.8064 23.0625 99.3741 23.0625C98.9939 23.0625 98.6944 23.1536 98.4756 23.3359C98.2621 23.5182 98.1553 23.7682 98.1553 24.0859H95.8975C95.8975 23.5964 96.0485 23.1432 96.3506 22.7266C96.6527 22.3099 97.0798 21.9844 97.6319 21.75C98.184 21.5104 98.8037 21.3906 99.4912 21.3906C100.533 21.3906 101.358 21.6536 101.968 22.1797C102.582 22.7005 102.89 23.4349 102.89 24.3828V28.0469C102.895 28.849 103.007 29.4557 103.226 29.8672V30H100.944ZM99.0772 28.4297C99.4105 28.4297 99.7178 28.3568 99.9991 28.2109C100.28 28.0599 100.489 27.8594 100.624 27.6094V26.1562H99.7803C98.6501 26.1562 98.0485 26.5469 97.9756 27.3281L97.9678 27.4609C97.9678 27.7422 98.0668 27.974 98.2647 28.1562C98.4626 28.3385 98.7334 28.4297 99.0772 28.4297ZM112.475 23.3594H109.764V30H107.498V23.3594H104.834V21.5469H112.475V23.3594ZM116.989 24.0234H118.607C119.336 24.0234 119.976 24.1458 120.528 24.3906C121.081 24.6354 121.502 24.987 121.794 25.4453C122.091 25.8984 122.239 26.4271 122.239 27.0312C122.239 27.9219 121.909 28.6406 121.247 29.1875C120.591 29.7292 119.695 30 118.56 30H114.724V21.5469H116.989V24.0234ZM116.989 25.8359V28.1953H118.591C119.039 28.1953 119.383 28.0911 119.622 27.8828C119.862 27.6745 119.982 27.3906 119.982 27.0312C119.982 26.6667 119.864 26.3776 119.63 26.1641C119.396 25.9453 119.049 25.8359 118.591 25.8359H116.989ZM127.988 28.3359C128.405 28.3359 128.744 28.2214 129.004 27.9922C129.264 27.763 129.4 27.4583 129.41 27.0781H131.527C131.522 27.651 131.366 28.1771 131.059 28.6562C130.751 29.1302 130.33 29.5 129.793 29.7656C129.262 30.026 128.673 30.1562 128.027 30.1562C126.819 30.1562 125.866 29.7734 125.168 29.0078C124.47 28.237 124.121 27.1745 124.121 25.8203V25.6719C124.121 24.3698 124.468 23.3307 125.16 22.5547C125.853 21.7786 126.804 21.3906 128.012 21.3906C129.069 21.3906 129.916 21.6927 130.551 22.2969C131.192 22.8958 131.517 23.6953 131.527 24.6953H129.41C129.4 24.2578 129.264 23.9036 129.004 23.6328C128.744 23.3568 128.4 23.2188 127.973 23.2188C127.447 23.2188 127.048 23.4115 126.777 23.7969C126.512 24.1771 126.379 24.7969 126.379 25.6562V25.8906C126.379 26.7604 126.512 27.3854 126.777 27.7656C127.043 28.1458 127.447 28.3359 127.988 28.3359ZM140.823 21.5469V30H138.573V27.0781H137.144L135.519 30H133.23L135.073 26.6953C134.568 26.4609 134.178 26.1432 133.902 25.7422C133.631 25.3411 133.495 24.8854 133.495 24.375C133.495 23.5573 133.81 22.888 134.441 22.3672C135.076 21.8411 135.925 21.5677 136.988 21.5469H140.823ZM137.027 25.5H138.573V23.3594H137.105C136.704 23.3594 136.378 23.4661 136.128 23.6797C135.878 23.888 135.753 24.1432 135.753 24.4453C135.753 24.7474 135.873 24.9974 136.113 25.1953C136.352 25.3932 136.657 25.4948 137.027 25.5Z" fill="white"/>
<path d="M176 13L152 26.5L159.67 29.3407L171.5 18.25L162.502 30.3896L162.509 30.3923L162.5 30.3896V37.0001L166.801 31.982L172.25 34.0001L176 13Z" fill="white"/>
<defs>
<filter id="filter0_d_25372_398" x="0" y="0" width="208" height="58" filterUnits="userSpaceOnUse" color-interpolation-filters="sRGB">
<feFlood flood-opacity="0" result="BackgroundImageFix"/>
<feColorMatrix in="SourceAlpha" type="matrix" values="0 0 0 0 0 0 0 0 0 0 0 0 0 0 0 0 0 0 127 0" result="hardAlpha"/>
<feOffset dy="4"/>
<feGaussianBlur stdDeviation="2"/>
<feColorMatrix type="matrix" values="0 0 0 0 0 0 0 0 0 0 0 0 0 0 0 0 0 0 0.15 0"/>
<feBlend mode="normal" in2="BackgroundImageFix" result="effect1_dropShadow_25372_398"/>
<feBlend mode="normal" in="SourceGraphic" in2="effect1_dropShadow_25372_398" result="shape"/>
</filter>
</defs>
</svg>
